HIERARCHY
ROOT SpineBase
{
  OFFSET 0.000000 0.000000 0.000000
  CHANNELS 6 Xposition Yposition Zposition Zrotation Xrotation Yrotation
  JOINT SpineMid
  {
    OFFSET 0.000000 31.384777 0.000000
    CHANNELS 3 Zrotation Xrotation Yrotation
    JOINT SpineShoulder
    {
      OFFSET 0.246111 23.230714 -0.703584
      CHANNELS 3 Zrotation Xrotation Yrotation
      JOINT Neck
      {
        OFFSET 0.192042 7.701073 -0.569292
        CHANNELS 3 Zrotation Xrotation Yrotation
        JOINT Head
        {
          OFFSET 1.602895 10.902281 1.048288
          CHANNELS 3 Zrotation Xrotation Yrotation
          End Site
          {
            OFFSET 0 0 0
          }
        }
      }
      JOINT ShoulderLeft
      {
        OFFSET -13.348914 -2.456472 -9.973964
        CHANNELS 3 Zrotation Xrotation Yrotation
        JOINT ElbowLeft
        {
          OFFSET -8.965763 -26.709209 -1.815584
          CHANNELS 3 Zrotation Xrotation Yrotation
          JOINT WristLeft
          {
            OFFSET -4.064610 -24.279304 -5.466260
            CHANNELS 3 Zrotation Xrotation Yrotation
            JOINT HandLeft
            {
              OFFSET -1.274119 -7.340101 0.248706
              CHANNELS 3 Zrotation Xrotation Yrotation
              JOINT HandTipLeft
              {
                OFFSET -1.558530 -6.948742 -0.510450
                CHANNELS 3 Zrotation Xrotation Yrotation
                End Site
                {
                  OFFSET 0 0 0
                }
              }
              JOINT ThumbLeft
              {
                OFFSET -2.816274 -0.445124 -2.205035
                CHANNELS 3 Zrotation Xrotation Yrotation
                End Site
                {
                  OFFSET 0 0 0
                }
              }
            }
          }
        }
      }
      JOINT ShoulderRight
      {
        OFFSET 16.495046 -3.954049 7.524511
        CHANNELS 3 Zrotation Xrotation Yrotation
        JOINT ElbowRight
        {
          OFFSET 3.458929 -27.113433 3.273308
          CHANNELS 3 Zrotation Xrotation Yrotation
          JOINT WristRight
          {
            OFFSET 5.545560 -24.272769 -2.551717
            CHANNELS 3 Zrotation Xrotation Yrotation
            JOINT HandRight
            {
              OFFSET 0.938074 -8.362181 -2.752652
              CHANNELS 3 Zrotation Xrotation Yrotation
              JOINT HandTipRight
              {
                OFFSET 1.792823 -7.405668 0.503516
                CHANNELS 3 Zrotation Xrotation Yrotation
                End Site
                {
                  OFFSET 0 0 0
                }
              }
              JOINT ThumbRight
              {
                OFFSET -2.993708 -0.549893 -5.576713
                CHANNELS 3 Zrotation Xrotation Yrotation
                End Site
                {
                  OFFSET 0 0 0
                }
              }
            }
          }
        }
      }
    }
  }
  JOINT HipLeft
  {
    OFFSET -5.182020 1.758629 -6.810567
    CHANNELS 3 Zrotation Xrotation Yrotation
    JOINT KneeLeft
    {
      OFFSET -6.091024 -30.470419 -4.593953
      CHANNELS 3 Zrotation Xrotation Yrotation
      JOINT AnkleLeft
      {
        OFFSET -6.805794 -41.213019 7.040855
        CHANNELS 3 Zrotation Xrotation Yrotation
        JOINT FootLeft
        {
          OFFSET 4.057651 -5.440487 -9.638701
          CHANNELS 3 Zrotation Xrotation Yrotation
          End Site
          {
            OFFSET 0 0 0
          }
        }
      }
    }
  }
  JOINT HipRight
  {
    OFFSET 6.916611 0.272248 -0.933997
    CHANNELS 3 Zrotation Xrotation Yrotation
    JOINT KneeRight
    {
      OFFSET 1.055111 -34.044494 1.946340
      CHANNELS 3 Zrotation Xrotation Yrotation
      JOINT AnkleRight
      {
        OFFSET -1.017689 -38.740660 6.844375
        CHANNELS 3 Zrotation Xrotation Yrotation
        JOINT FootRight
        {
          OFFSET 5.285900 -4.822528 -11.092831
          CHANNELS 3 Zrotation Xrotation Yrotation
          End Site
          {
            OFFSET 0 0 0
          }
        }
      }
    }
  }
}
MOTION
Frames: 6
Frame Time: 0.033333
-87.016577 78.354543 339.666968 -0.446302 -2.558567 -32.128260 0.369092 -0.240837 32.136806 0.236020 -0.165929 0.046375 -13.420513 4.219325 1.891089 0.000000 0.000000 0.000000 3.278602 7.789180 -2.187782 12.485302 4.891347 -3.510290 4.838204 6.280171 2.516377 4.292924 -3.938982 -1.073987 0.000000 0.000000 0.000000 0.000000 0.000000 0.000000 27.948233 1.143646 1.982109 21.628894 9.323665 -10.670598 8.034886 -5.197473 -11.911063 -1.029240 -5.484183 23.669280 0.000000 0.000000 0.000000 0.000000 0.000000 0.000000 -6.222416 7.112866 31.517952 -3.836388 -8.155155 -0.352782 5.816167 1.416100 0.695988 0.000000 0.000000 0.000000 6.376476 12.118398 31.990133 -7.437631 -6.449526 -0.082261 -8.650629 -9.293217 -4.073795 0.000000 0.000000 0.000000
-89.063995 78.176672 339.071361 -0.195295 -3.292890 -34.291138 0.364862 -0.198994 34.318696 0.225448 -0.141701 0.065365 -15.059056 5.187298 2.250735 0.000000 0.000000 0.000000 3.491442 8.950726 -2.514914 13.234906 3.892371 -3.310006 2.038970 7.813405 2.000487 8.117094 -9.703886 2.320557 0.000000 0.000000 0.000000 0.000000 0.000000 0.000000 26.452325 0.455303 1.683288 25.016321 12.348255 -12.017336 9.392334 -4.384748 -12.819747 0.574137 -6.729322 25.993706 0.000000 0.000000 0.000000 0.000000 0.000000 0.000000 -6.516066 7.149674 33.729645 -3.135693 -7.735677 -0.046366 1.034730 -5.206810 2.339982 0.000000 0.000000 0.000000 5.168023 13.436261 34.169488 -6.553141 -6.964516 0.168805 -8.653876 -7.673391 -4.890040 0.000000 0.000000 0.000000
-91.077729 78.164599 338.390889 -0.154709 -3.793807 -36.260416 0.373921 -0.174359 36.294133 0.217915 -0.139752 0.073295 -15.845097 6.368170 2.486849 0.000000 0.000000 0.000000 3.698234 9.776226 -2.732589 13.262775 2.738491 -2.886796 -0.374210 10.522871 1.009921 12.444960 -13.136111 5.043958 0.000000 0.000000 0.000000 0.000000 0.000000 0.000000 23.411775 -0.676414 1.349902 30.132127 15.270501 -13.478078 8.847654 -3.568653 -13.368923 1.801395 -6.790717 27.122663 0.000000 0.000000 0.000000 0.000000 0.000000 0.000000 -5.962625 7.082587 35.688741 -2.313999 -7.040753 0.388293 -1.036331 -5.882634 2.279576 0.000000 0.000000 0.000000 3.456884 13.695700 36.268311 -4.831295 -6.992001 0.459509 -7.707335 -5.654790 -6.373012 0.000000 0.000000 0.000000
-93.000600 78.281480 337.666678 -0.169534 -4.158396 -38.133129 0.395404 -0.179739 38.168807 0.205387 -0.151344 0.077373 -16.705493 7.644483 2.749634 0.000000 0.000000 0.000000 3.230696 10.963780 -2.954997 14.305999 0.083236 -1.890511 -1.929512 10.845635 0.999835 14.494082 -14.305543 5.999236 0.000000 0.000000 0.000000 0.000000 0.000000 0.000000 20.021370 -1.996305 0.985602 35.618419 18.450815 -15.249190 7.640202 -3.802419 -13.360510 1.795415 -5.244487 26.993970 0.000000 0.000000 0.000000 0.000000 0.000000 0.000000 -5.719191 6.961815 37.583903 -1.114747 -6.803843 0.828805 -6.892885 -11.404024 5.743130 0.000000 0.000000 0.000000 1.434447 13.441612 38.332027 -2.746946 -6.972587 0.758468 -6.300573 -3.430109 -7.940065 0.000000 0.000000 0.000000
-94.756623 78.498004 336.912179 -0.392430 -4.216690 -39.942094 0.390811 -0.184451 39.962692 0.184553 -0.157286 0.066791 -16.747468 8.338949 2.834437 0.000000 0.000000 0.000000 2.999832 11.786341 -3.118736 14.277815 -2.449906 -0.743146 -2.425657 9.382553 1.403337 14.685211 -10.920367 3.966594 0.000000 0.000000 0.000000 0.000000 0.000000 0.000000 17.127365 -3.208176 0.696047 40.103356 20.316117 -16.515198 6.448001 -4.661108 -13.020518 1.667554 -2.238061 26.081779 0.000000 0.000000 0.000000 0.000000 0.000000 0.000000 -4.830601 6.918561 39.333428 -0.605335 -6.446575 1.162366 -8.933269 -12.225563 6.243675 0.000000 0.000000 0.000000 0.024210 12.831927 40.279047 -1.240929 -6.622940 0.904457 -4.526501 -1.876197 -9.709132 0.000000 0.000000 0.000000
-96.310301 78.749393 336.129258 -0.732492 -3.991986 -41.737762 0.361707 -0.198460 41.733996 0.146414 -0.157270 0.045318 -16.625087 9.003801 2.848061 0.000000 0.000000 0.000000 2.734228 12.329116 -3.212170 13.741706 -4.565191 0.332967 -2.927787 8.102540 1.580600 15.318811 -8.682660 2.692097 0.000000 0.000000 0.000000 0.000000 0.000000 0.000000 15.259465 -4.220773 0.532759 42.992216 20.663261 -17.063519 5.211261 -7.312480 -11.883692 -0.350120 3.564992 23.573954 0.000000 0.000000 0.000000 0.000000 0.000000 0.000000 -3.654790 6.788608 41.054830 -0.212470 -6.210405 1.472573 -8.663609 -9.416724 5.100545 0.000000 0.000000 0.000000 -0.460972 12.173182 42.121029 -0.753891 -6.039302 0.860172 -3.193268 -1.653378 -11.040159 0.000000 0.000000 0.000000
